<!-- Generated by scripts/nameplates.ts. Noto Sans SC Black (SIL OFL 1.1). -->
<svg xmlns="http://www.w3.org/2000/svg" viewBox="0 -122.0 939.2 244.0"><path id="accent" d="M19.3-81.1L19.3-81.1L38.1-104.8Q43.6-102.3 50.4-98.6Q57.2-95 63.7-91.5Q70.2-88.0 74.3-85L74.3-85L67.9-76.4L96.1-76.4Q94.5-79.8 92.5-83.9L92.5-83.9Q88.1-92.0 84.3-98.6L84.3-98.6L114.7-110Q119.0-103.6 123.4-96.3Q127.7-88.9 130.2-83.4L130.2-83.4L113.6-76.4L146.8-76.4L146.8-61.8Q147.9-64.8 148.8-68.2L148.8-68.2Q154.5-86.8 157.2-106.6L157.2-106.6L188.6-101.4Q187.0-91.6 185.0-82.0L185.0-82.0L228.4-82.0L228.4-50.9L176.1-50.9Q173.6-44.1 171.1-38.2L171.1-38.2L205.9-38.2L211.5-39.8L230.9-25.9Q223.1-14.5 212.7-2.7L212.7-2.7Q209.0 1.4 205.4 5L205.4 5L205.4 16.4L229.0 16.4L229.0 45.7L205.4 45.7L205.4 76.4Q205.4 86.8 203.3 93.3Q201.1 99.8 194.0 103.4L194.0 103.4Q187.2 107.0 178.4 107.8Q169.5 108.6 158.1 108.6L158.1 108.6Q157.5 102.0 155.0 93.5Q152.5 85.0 149.7 78.6L149.7 78.6Q155.9 78.9 162.3 79.0Q168.8 79.1 171.1 79.1Q173.4 79.1 174.2 78.4Q175.0 77.7 175.0 75.9L175.0 75.9L175.0 45.7L149.0 45.7L149.0 16.4L175.0 16.4L175.0-2.3Q178.6-5.7 182.5-9.8L182.5-9.8L157.7-9.8L157.7-24.1Q155.9-25.5 153.6-26.8L153.6-26.8Q148.4-29.8 143.0-32.6Q137.7-35.5 133.8-37.3L133.8-37.3Q136.5-40.9 139.0-45.2L139.0-45.2L110.0-45.2Q109.7-34.8 109.3-24.3L109.3-24.3L147.7-24.3L147.7-22.0Q147.5-19.8 147.5-16.8Q147.5-13.9 147.2-12.0L147.2-12.0Q146.3 14.1 145.2 33.0Q144.0 51.8 142.8 64.4Q141.5 77.0 139.7 84.3Q137.9 91.6 135.4 95.0L135.4 95.0Q131.8 100.0 128.1 102.3Q124.5 104.5 119.7 105.7L119.7 105.7Q115.9 106.6 110.3 106.8Q104.7 107.0 98.1 107.0L98.1 107.0Q97.7 100.5 95.6 92.0L95.6 92.0Q93.8 84.3 90.9 78.6L90.9 78.6Q83.8 95.0 72.7 108.4L72.7 108.4Q69.0 102.7 62.9 96.5Q56.8 90.2 50.9 86.6L50.9 86.6Q61.3 74.1 67.1 58.2Q72.9 42.3 75.5 24.0Q78.1 5.7 79.0-14.1L79.0-14.1Q79.5-29.5 79.7-45.2L79.7-45.2L65.9-45.2L65.9-73.9L54.5-58.6Q50.9-61.8 44.6-65.8Q38.4-69.8 31.7-73.9Q25.0-78.0 19.3-81.1ZM43.6 106.4L13.6 90.5Q17.7 81.1 22.3 69.0Q27 56.8 31.8 43.1Q36.5 29.3 40.6 15.5L40.6 15.5L67.5 31.8Q64.0 44.3 60.1 57.2Q56.1 70 52.0 82.4Q47.9 94.8 43.6 106.4L43.6 106.4ZM12-20.7L12-20.7L30.9-44.5Q36.1-42.0 42.8-38.6Q49.5-35.2 55.9-31.8Q62.2-28.4 66.3-25.7L66.3-25.7L46.8 0.9Q43.1-2.0 37-5.9Q30.9-9.8 24.2-13.6Q17.5-17.5 12-20.7ZM91.3 77.5L91.3 77.5Q94.7 78.0 97.7 78.0L97.7 78.0Q100.9 78.2 103.1 78.2L103.1 78.2Q105.2 78.2 106.7 77.5Q108.1 76.8 109.7 74.5L109.7 74.5Q111.5 71.8 113.0 62.4Q114.5 53.0 115.9 33.4L115.9 33.4Q116.5 21.8 117.2 5.5L117.2 5.5L107.2 5.5Q105.6 20.9 103.1 35.5L103.1 35.5Q99.5 56.6 92.2 75L92.2 75Q91.8 76.4 91.3 77.5Z M346.8-14.8L343.0-45L363.9-47.5Q362.3-74.5 361.8-105.7L361.8-105.7L396.4-105.7Q396.4-76.8 397.3-51.6L397.3-51.6L461.2-59.1L465.0-29.5L433.4-25.7L459.6-9.8Q452.5 6.8 442.1 23.0Q431.6 39.1 418.9 53.4L418.9 53.4Q418.0 54.5 417.1 55.5L417.1 55.5Q417.3 55.7 417.5 56.1L417.5 56.1Q423.4 65.2 431.2 66.8L431.2 66.8Q434.8 67.3 436.6 59.2Q438.4 51.1 439.3 33.4L439.3 33.4Q442.5 37.0 447.9 41.0Q453.2 45.0 458.5 48.4Q463.9 51.8 467.1 53.4L467.1 53.4Q463.9 76.6 458.3 88.6Q452.7 100.7 446.0 104.7Q439.3 108.6 432.7 108.2L432.7 108.2Q415.2 106.1 403.2 95.9L403.2 95.9Q395.9 89.8 390.2 80.7L390.2 80.7Q376.2 91.8 361.4 99.8L361.4 99.8Q356.6 93.9 349.5 86.9Q342.3 80 335.2 75.2L335.2 75.2Q351.6 68.4 366.6 57.7L366.6 57.7Q371.8 53.9 376.8 49.8L376.8 49.8Q373.4 38.0 371.2 24.1L371.2 24.1Q367.7 5.5 365.7-17.0L365.7-17.0L346.8-14.8ZM254.8-54.8L254.8-83.6L319.6-83.6L325.0-84.8L346.2-77.7Q341.8-40.5 332.5-8.2L332.5-8.2Q328.9 3.9 324.6 15.2L324.6 15.2Q330.7 23.4 336.4 31.1L336.4 31.1Q345.5 43.9 351.2 54.3L351.2 54.3L325.9 77.7Q320.7 67.0 312.3 53.6L312.3 53.6Q310.7 51.4 309.1 48.9L309.1 48.9Q308.7 49.3 308.4 49.8L308.4 49.8Q293.9 75.7 273.4 94.3L273.4 94.3Q270.9 90.2 266.7 85.1Q262.5 80 258.1 75.2Q253.7 70.5 249.6 67.5L249.6 67.5Q262.7 56.8 273.7 41.1L273.7 41.1Q280.9 30.2 287.3 17.7L287.3 17.7Q280.0 7.7 272.5-2.0L272.5-2.0Q261.8-16.1 252.3-28.4L252.3-28.4L274.6-47.5Q284.1-35.7 295.0-22.3L295.0-22.3Q297.7-18.9 300.5-15.5L300.5-15.5Q303.7-24.8 306.2-34.3L306.2-34.3Q308.7-44.5 310.5-54.8L310.5-54.8L254.8-54.8ZM404.3-89.5L404.3-89.5L428.0-106.8Q432.5-102.0 438.0-96.3Q443.4-90.5 448.7-85Q453.9-79.5 457.1-75.2L457.1-75.2L431.8-55.7Q429.1-60.2 424.2-66.1Q419.3-72.0 414.1-78.2Q408.9-84.3 404.3-89.5ZM433.2-25.5L399.3-21.4Q400.0-13.0 400.9-5.2L400.9-5.2Q402.7 9.3 405.0 21.1L405.0 21.1Q411.4 13.4 416.8 5L416.8 5Q426.6-10 433.2-25.5L433.2-25.5Z"/><path id="ink" d="M508.0-13.9L508.0-96.1L689.9-96.1L689.9 73.9Q689.9 85.9 687.0 92.6Q684.2 99.3 676.9 103.2L676.9 103.2Q669.6 106.8 659.3 107.7Q648.9 108.6 634.4 108.6L634.4 108.6Q633.5 102.0 630.5 93.0L630.5 93.0Q628.7 87.3 626.7 82.7L626.7 82.7L583.5 82.7L583.5 95.0L553.7 95.0L553.7 19.3L641.7 19.3L641.7 78.6Q643.5 78.6 645.1 78.6L645.1 78.6L651.4 78.6Q654.4 78.6 655.5 77.5Q656.7 76.4 656.7 73.6L656.7 73.6L656.7-65.7L540.8-65.7L540.8-13.9Q540.8 0 539.7 16.6Q538.7 33.2 535.8 50.0Q532.8 66.8 527.2 82.3Q521.7 97.7 512.6 109.8L512.6 109.8Q509.9 106.6 504.9 102.5Q499.9 98.4 494.6 94.5Q489.4 90.7 485.8 88.9L485.8 88.9Q493.5 78.4 498.0 65.7Q502.6 53.0 504.7 39.2Q506.9 25.5 507.5 11.8Q508.0-1.8 508.0-13.9L508.0-13.9ZM551.4-25.7L551.4-50.5L581.7-50.5L581.7-63.0L612.8-63.0L612.8-50.5L644.6-50.5L644.6-25.7L612.8-25.7L612.8-15.9L648.5-15.9L648.5 9.8L547.1 9.8L547.1-15.9L581.7-15.9L581.7-25.7L551.4-25.7ZM583.5 43.9L583.5 58.2L611.2 58.2L611.2 43.9L583.5 43.9Z M795.6 107.7L795.6-98.9L916.1-98.9L916.1-94.5Q915.8-90 915.6-87.0L915.6-87.0Q914.9-63.0 912.9-50.8Q910.8-38.6 906.5-33.6Q902.2-28.6 896.2-26.8Q890.1-25 883.6-24.3L883.6-24.3Q877.4-23.9 868.1-23.9Q858.8-23.9 848.6-24.1L848.6-24.1Q848.3-30 845.9-37.7Q843.6-45.5 840.4-50.7L840.4-50.7Q846.5-50.2 852.0-50Q857.4-49.8 861.9-49.7Q866.3-49.5 868.8-49.5L868.8-49.5Q872.0-49.5 874.0-49.9Q876.1-50.2 877.6-51.8Q879.2-53.4 880.1-58.4L880.1-58.4Q880.6-62.0 881.1-68.4L881.1-68.4L828.3-68.4L828.3-18.6L893.6-18.6L899.2-19.5L920.4-13.4Q916.5 16.1 907.0 39.5L907.0 39.5Q902.0 51.8 895.4 62.3L895.4 62.3Q909.5 73.6 927.2 80.7L927.2 80.7Q923.6 83.9 919.2 88.9Q914.9 93.9 911.1 99.2Q907.2 104.5 904.7 108.9L904.7 108.9Q887.2 100.7 873.8 88.6L873.8 88.6Q860.4 101.1 842.4 110.0L842.4 110.0Q838.8 103.9 832.4 96.6L832.4 96.6Q830.4 94.3 828.3 92.0L828.3 92.0L828.3 107.7L795.6 107.7ZM715.4 39.5L708.6 5.7Q719.2 3.6 732.6 0.7L732.6 0.7Q735.4 0.2 738.1-0.5L738.1-0.5L738.1-33.2L711.5-33.2L711.5-65.2L738.1-65.2L738.1-107.0L772.0-107.0L772.0-65.2L791.5-65.2L791.5-33.2L772.0-33.2L772.0-8.0Q781.1-10 789.9-12.0L789.9-12.0L794.0 20.2Q783.1 23.0 772.0 25.7L772.0 25.7L772.0 73.0Q772.0 85.0 769.4 91.8Q766.7 98.6 759.7 102.5Q752.6 106.4 742.5 107.5Q732.4 108.6 718.8 108.4L718.8 108.4Q717.9 101.8 715.0 92.7Q712.2 83.6 709.0 77.0L709.0 77.0Q716.1 77.3 723.3 77.4Q730.6 77.5 733.1 77.5L733.1 77.5Q736.1 77.5 737.1 76.5Q738.1 75.5 738.1 72.7L738.1 72.7L738.1 34.1Q726.1 37.0 715.4 39.5L715.4 39.5ZM852.6 64.1L852.6 64.1Q847.6 57.0 843.6 49.3L843.6 49.3Q834.9 33.9 828.3 15.7L828.3 15.7L828.3 80.9Q839.0 75.5 847.6 68.4L847.6 68.4Q850.1 66.4 852.6 64.1ZM883.3 10.7L858.1 10.7Q863.1 22.5 869.9 33.2L869.9 33.2Q871.3 35.7 872.9 38.0L872.9 38.0Q877.4 29.3 880.8 19.3L880.8 19.3Q882.2 15.2 883.3 10.7L883.3 10.7Z"/></svg>
